<svg width="202" height="31" viewBox="0 0 202 31" fill="none" xmlns="http://www.w3.org/2000/svg">
<path d="M12.64 11.64C16.72 11.64 20.44 14.56 20.44 21C20.44 27.08 16.72 30.32 12.64 30.32C9.32 30.32 6.96 27.88 5.88 24.6V30.04H0.76C0.56 30.04 0.44 29.88 0.44 29.72C0.44 29.52 0.56 29.4 0.76 29.4H1.8C2.36 29.4 2.76 28.96 2.76 28.44V2.44C2.76 1.92 2.36 1.48 1.8 1.48H0.76C0.56 1.48 0.44 1.36 0.44 1.16C0.44 0.999999 0.56 0.839999 0.76 0.839999H5.88V17.36C6.96 14 9.4 11.64 12.64 11.64ZM11.76 29.4C14.84 29.4 17.08 26.88 17.08 21C17.08 15.08 14.84 12.56 11.76 12.56C8.68 12.56 5.84 16.4 5.84 20.96C5.84 25.6 8.72 29.4 11.76 29.4ZM41.1194 20.56C41.1194 20.88 40.9594 20.96 40.5994 20.96H27.7594C27.7594 25.52 29.5994 29.36 33.9994 29.36C37.5594 29.36 39.4794 26.76 40.1594 24.88C40.2394 24.64 40.3594 24.6 40.4794 24.6C40.6794 24.6 40.7994 24.76 40.7594 24.96C40.4394 26.2 38.5194 30.28 33.5594 30.28C28.6794 30.28 24.3994 27.4 24.3994 20.96C24.3994 15.04 27.9594 11.68 32.9994 11.68C37.7594 11.68 41.1194 14.76 41.1194 20.56ZM27.7594 20.4H37.8394C37.8394 14.88 35.8794 12.32 32.9594 12.32C30.0794 12.32 27.9194 15.12 27.7594 20.4ZM54.0969 30.28C49.1769 30.28 45.3369 26.96 45.3369 20.96C45.3369 15.16 49.0569 11.68 54.0969 11.68C58.9369 11.68 62.8569 14.84 62.8569 20.96C62.8569 26.96 59.0569 30.28 54.0969 30.28ZM54.0569 29.64C57.1769 29.6 59.5369 26.6 59.5369 20.96C59.5369 15.2 57.1369 12.32 54.0969 12.32C51.0569 12.32 48.6569 15.2 48.6569 20.96C48.6569 26.4 50.9369 29.6 54.0569 29.64ZM85.9925 29.4C86.1525 29.4 86.3125 29.52 86.3125 29.72C86.3125 29.88 86.1525 30.04 85.9925 30.04H78.8725C78.6725 30.04 78.5525 29.88 78.5525 29.72C78.5525 29.52 78.6725 29.4 78.8725 29.4H79.9125C80.4725 29.4 80.8725 28.96 80.8725 28.44V18.04C80.8725 14 78.8725 12.84 77.1925 12.84C73.5925 12.84 71.1925 16.64 71.1925 21.12V28.44C71.1925 28.96 71.5525 29.4 72.1525 29.4H73.1925C73.3525 29.4 73.5125 29.52 73.5125 29.72C73.5125 29.88 73.3525 30.04 73.1925 30.04H66.0725C65.8725 30.04 65.7525 29.88 65.7525 29.72C65.7525 29.52 65.8725 29.4 66.0725 29.4H67.1125C67.6725 29.4 68.0725 28.96 68.0725 28.44V13.56C68.0725 13.04 67.6725 12.6 67.1125 12.6H66.0725C65.8725 12.6 65.7525 12.48 65.7525 12.28C65.7525 12.12 65.8725 11.96 66.0725 11.96H71.1925V17.48C72.1925 14.16 74.7125 11.72 78.2725 11.72C81.7125 11.72 83.9925 13.76 83.9925 17.32V28.44C83.9925 28.96 84.3525 29.4 84.9525 29.4H85.9925ZM97.3241 12.92C97.3241 17.28 104.684 19.36 104.684 24.4C104.684 28.24 101.164 30.28 96.6041 30.28C92.4841 30.28 89.2041 28.2 89.2041 24.8C89.2041 23.48 89.9241 22.8 90.6441 22.64L95.7641 13.24C96.0041 12.28 96.4441 11.4 96.9241 10.64C97.2841 10.08 97.7641 9.64 97.9641 9.64C98.1641 9.64 98.2841 9.8 98.2441 9.96C97.7241 10.92 97.3241 11.76 97.3241 12.92ZM96.2041 29.6C100.364 29.6 101.724 27.48 101.724 25.16C101.724 21.6 95.3241 19.24 95.5241 14.92L91.3241 22.68C91.8841 22.76 92.4041 23.24 92.4041 24.08C92.4041 25.24 90.9241 25.56 90.9241 26.56C90.9241 28.16 93.3241 29.6 96.2041 29.6ZM124.155 17.12C124.155 18.8 123.235 19.56 122.275 19.56C121.355 19.56 120.635 18.8 120.635 17.92C120.635 16.56 122.155 16.32 122.155 15.28C122.155 13.72 119.835 12.32 117.155 12.32C114.315 12.32 111.275 14.36 111.275 20.92C111.275 26.44 113.715 29.4 117.395 29.4C120.915 29.4 122.755 26.76 123.515 24.88C123.555 24.72 123.675 24.64 123.795 24.64C124.075 24.64 124.155 24.84 124.115 25.04C123.475 26.84 121.475 30.28 116.955 30.28C111.155 30.28 107.915 26.4 107.915 20.92C107.915 14.48 112.435 11.68 116.755 11.68C121.075 11.68 124.155 14.04 124.155 17.12ZM148.141 29.4C148.301 29.4 148.461 29.52 148.461 29.72C148.461 29.88 148.301 30.04 148.141 30.04H141.021C140.821 30.04 140.701 29.88 140.701 29.72C140.701 29.52 140.821 29.4 141.021 29.4H142.061C142.621 29.4 143.021 28.96 143.021 28.44V18.04C143.021 14 141.021 12.84 139.341 12.84C135.741 12.84 133.341 16.64 133.341 21.12V28.44C133.341 28.96 133.701 29.4 134.301 29.4H135.341C135.501 29.4 135.661 29.52 135.661 29.72C135.661 29.88 135.501 30.04 135.341 30.04H128.221C128.021 30.04 127.901 29.88 127.901 29.72C127.901 29.52 128.021 29.4 128.221 29.4H129.261C129.821 29.4 130.221 28.96 130.221 28.44V2.44C130.221 1.92 129.821 1.48 129.261 1.48H128.221C128.021 1.48 127.901 1.36 127.901 1.16C127.901 0.999999 128.021 0.839999 128.221 0.839999H133.341V17.48C134.341 14.16 136.861 11.72 140.421 11.72C143.861 11.72 146.141 13.76 146.141 17.32V28.44C146.141 28.96 146.501 29.4 147.101 29.4H148.141ZM160.425 30.28C155.505 30.28 151.665 26.96 151.665 20.96C151.665 15.16 155.385 11.68 160.425 11.68C165.265 11.68 169.185 14.84 169.185 20.96C169.185 26.96 165.385 30.28 160.425 30.28ZM160.385 29.64C163.505 29.6 165.865 26.6 165.865 20.96C165.865 15.2 163.465 12.32 160.425 12.32C157.385 12.32 154.985 15.2 154.985 20.96C154.985 26.4 157.265 29.6 160.385 29.64ZM181.909 30.28C176.989 30.28 173.149 26.96 173.149 20.96C173.149 15.16 176.869 11.68 181.909 11.68C186.749 11.68 190.669 14.84 190.669 20.96C190.669 26.96 186.869 30.28 181.909 30.28ZM181.869 29.64C184.989 29.6 187.349 26.6 187.349 20.96C187.349 15.2 184.949 12.32 181.909 12.32C178.869 12.32 176.469 15.2 176.469 20.96C176.469 26.4 178.749 29.6 181.869 29.64ZM201.63 29.4C201.79 29.4 201.95 29.52 201.95 29.72C201.95 29.88 201.79 30.04 201.63 30.04H194.51C194.31 30.04 194.19 29.88 194.19 29.72C194.19 29.52 194.31 29.4 194.51 29.4H195.55C196.11 29.4 196.51 28.96 196.51 28.44V2.44C196.51 1.92 196.11 1.48 195.55 1.48H194.51C194.31 1.48 194.19 1.36 194.19 1.16C194.19 0.999999 194.31 0.839999 194.51 0.839999H199.63V28.44C199.63 28.96 199.99 29.4 200.59 29.4H201.63Z" fill="#D4AF37"/>
</svg>
