<svg
        width="11"
        height="9"
        viewBox="0 0 8 6"
        fill="none"
        xmlns="http://www.w3.org/2000/svg"
>
    <path
            d="M7.87213 1.03214L7.61008 0.768265C7.52761 0.685858 7.41788 0.640459 7.30061 0.640459C7.18341 0.640459 7.07355 0.685858 6.99108 0.768265L4.00179 3.75769L1.00905 0.764948C0.926707 0.682541 0.816852 0.637207 0.699648 0.637207C0.582444 0.637207 0.472524 0.682541 0.390117 0.764948L0.128001 1.02719C-0.042667 1.19773 -0.042667 1.47552 0.128001 1.64606L3.69122 5.22209C3.77356 5.30443 3.88328 5.36245 4.00153 5.36245H4.00289C4.12016 5.36245 4.22989 5.30437 4.31223 5.22209L7.87213 1.65575C7.9546 1.57341 7.99987 1.46037 8 1.34316C8 1.22589 7.9546 1.11441 7.87213 1.03214Z"
            fill="#000000"
    />
</svg>