<svg width="50" height="50" fill="none" xmlns="http://www.w3.org/2000/svg"><path opacity=".01" fill="#D8D8D8" d="M0 0h50v50H0z"/><rect x="26.105" y="8.105" width="35.368" height="22.105" rx="2.211" transform="rotate(90 26.105 8.105)" fill="url(#paint0_linear_0_15070)"/><rect x="46" y="8.105" width="35.368" height="17.684" rx="2.211" transform="rotate(90 46 8.105)" fill="url(#paint1_linear_0_15070)"/><rect x="26.105" y="7" width="35.368" height="22.105" rx="2.695" transform="rotate(90 26.105 7)" fill="url(#paint2_linear_0_15070)"/><g filter="url(#filter0_d_0_15070)"><rect x="19.447" y="37.947" width="1.105" height="3.289" rx=".553" transform="rotate(90 19.447 37.947)" fill="#53B5FF"/></g><rect x="23.825" y="37.947" width="1.105" height="3.289" rx=".553" transform="rotate(90 23.825 37.947)" fill="#152137"/><rect x="23.895" y="10.316" width="16.579" height="17.684" rx="1" transform="rotate(90 23.895 10.316)" fill="#152137"/><rect x="46" y="7" width="35.368" height="17.684" rx="2.695" transform="rotate(90 46 7)" fill="url(#paint3_linear_0_15070)"/><rect x="43.789" y="10.316" width="25.421" height="13.263" rx="1" transform="rotate(90 43.79 10.316)" fill="#152137"/><g filter="url(#filter1_d_0_15070)"><rect x="39.13" y="25.79" width="7.204" height="1.044" rx=".522" transform="rotate(90 39.13 25.79)" fill="#53B5FF"/></g><rect opacity=".25" x="35.814" y="25.79" width="4.802" height="1.044" rx=".522" transform="rotate(90 35.814 25.79)" fill="#53B5FF"/><g filter="url(#filter2_d_0_15070)"><rect width="1.601" height="1.044" rx=".522" transform="matrix(0 -1 -1 0 35.814 33.01)" fill="#53B5FF"/></g><g filter="url(#filter3_d_0_15070)"><path fill="#53B5FF" d="M41.579 12.526h-3.061v.786h3.061z"/></g><path opacity=".25" fill="#53B5FF" d="M37.28 12.526h-3.062v.786h3.061zm-8.6 0h-1.02v.786h1.02zm-2.259 0h-1.02v.786h1.02zm-2.259 0H21.1v.786h3.06z"/><g filter="url(#filter4_d_0_15070)"><path fill="#53B5FF" d="M19.862 12.526h-3.06v.786h3.06z"/></g><path opacity=".25" fill="#53B5FF" d="M15.563 12.526H8.42v.786h7.142zm17.417 0h-3.061v.786h3.06zm8.599 11.002h-3.061v.786h3.06zm-4.299 0h-3.062v.786h3.061zm-8.6 0h-1.02v.786h1.02z"/><g filter="url(#filter5_d_0_15070)"><path fill="#53B5FF" d="M26.421 23.528h-1.02v.786h1.02z"/></g><path opacity=".25" fill="#53B5FF" d="M24.162 23.528H21.1v.786h3.06z"/><g filter="url(#filter6_d_0_15070)"><path fill="#53B5FF" d="M19.862 23.528h-3.06v.786h3.06z"/></g><path opacity=".25" fill="#53B5FF" d="M15.563 23.528H8.42v.786h7.142z"/><g filter="url(#filter7_d_0_15070)"><path fill="#53B5FF" d="M32.98 23.528h-3.061v.786h3.06z"/></g><path opacity=".25" fill="#53B5FF" d="M14.543 21.956H8.421v.786h6.12zm7.797 0h-3.061v.786h3.061zm-4.08 0h-3.062v.786h3.061z"/><g filter="url(#filter8_d_0_15070)"><path fill="#53B5FF" d="M32.251 21.956h-8.672v.786h8.672z"/></g><path opacity=".25" fill="#53B5FF" d="M41.579 21.956h-8.672v.786h8.672zm-30.097-4.715H8.42v.786h3.06zm4.299 0h-3.06v.786h3.06zm6.559 0h-1.02v.786h1.02zm2.26 0h-1.02v.786h1.02z"/><g filter="url(#filter9_d_0_15070)"><path fill="#53B5FF" d="M28.899 17.241h-3.061v.786h3.06z"/></g><path opacity=".25" fill="#53B5FF" d="M33.198 17.241h-3.06v.786h3.06z"/><g filter="url(#filter10_d_0_15070)"><path fill="#53B5FF" d="M41.579 17.241h-7.142v.786h7.142z"/></g><path opacity=".25" fill="#53B5FF" d="M20.08 17.241h-3.06v.786h3.06zM11.482 18.813H8.42v.786h3.06zm6.85 0h-5.611v.786h5.611zm4.008 0h-3.061v.786h3.061z"/><g filter="url(#filter11_d_0_15070)"><path fill="#53B5FF" d="M27.66 18.813h-4.081v.786h4.081z"/></g><path opacity=".25" fill="#53B5FF" d="M31.668 18.813h-2.551v.786h2.551zm9.911 0h-3.571v.786h3.57zm-5.101 0h-3.571v.786h3.57zM14.543 20.385H8.421v.786h6.12z"/><g filter="url(#filter12_d_0_15070)"><path fill="#53B5FF" d="M22.34 20.385h-6.632v.786h6.632z"/></g><path opacity=".25" fill="#53B5FF" d="M28.68 20.385h-5.1v.786h5.1z"/><g filter="url(#filter13_d_0_15070)"><path fill="#53B5FF" d="M41.579 20.385h-8.672v.786h8.672z"/></g><path opacity=".25" fill="#53B5FF" d="M31.887 20.385h-2.04v.786h2.04z"/><g><path opacity=".25" fill="#53B5FF" d="M41.579 14.098h-3.061v.786h3.06z"/><g filter="url(#filter14_d_0_15070)"><path fill="#53B5FF" d="M37.28 14.098h-5.612v.786h5.611z"/></g><path opacity=".25" fill="#53B5FF" d="M30.72 14.098h-3.06v.786h3.06z"/><g filter="url(#filter15_d_0_15070)"><path fill="#53B5FF" d="M26.421 14.098h-4.08v.786h4.08z"/></g><path opacity=".25" fill="#53B5FF" d="M20.883 14.098h-2.551v.786h2.55zm-8.891 0H8.42v.786h3.57zm5.101 0h-3.57v.786h3.57z"/></g><g><path opacity=".25" fill="#53B5FF" d="M41.579 15.67h-6.121v.786h6.12zm-7.288 0H27.66v.786h6.632zm-7.87 0h-5.1v.786h5.1z"/><g filter="url(#filter16_d_0_15070)"><path fill="#53B5FF" d="M17.093 15.67H8.421v.786h8.672z"/></g><path opacity=".25" fill="#53B5FF" d="M20.154 15.67h-2.04v.786h2.04z"/></g><defs><filter id="filter0_d_0_15070" x="12.4" y="34.19" width="10.805" height="8.621" filterUnits="userSpaceOnUse" color-interpolation-filters="sRGB"><feFlood flood-opacity="0" result="BackgroundImageFix"/><feColorMatrix in="SourceAlpha" values="0 0 0 0 0 0 0 0 0 0 0 0 0 0 0 0 0 0 127 0" result="hardAlpha"/><feOffset/><feGaussianBlur stdDeviation="1.879"/><feColorMatrix values="0 0 0 0 0.180392 0 0 0 0 0.811765 0 0 0 0 0.976471 0 0 0 1 0"/><feBlend in2="BackgroundImageFix" result="effect1_dropShadow_0_15070"/><feBlend in="SourceGraphic" in2="effect1_dropShadow_0_15070" result="shape"/></filter><filter id="filter1_d_0_15070" x="34.327" y="22.032" width="8.56" height="14.719" filterUnits="userSpaceOnUse" color-interpolation-filters="sRGB"><feFlood flood-opacity="0" result="BackgroundImageFix"/><feColorMatrix in="SourceAlpha" values="0 0 0 0 0 0 0 0 0 0 0 0 0 0 0 0 0 0 127 0" result="hardAlpha"/><feOffset/><feGaussianBlur stdDeviation="1.879"/><feColorMatrix values="0 0 0 0 0.180392 0 0 0 0 0.811765 0 0 0 0 0.976471 0 0 0 1 0"/><feBlend in2="BackgroundImageFix" result="effect1_dropShadow_0_15070"/><feBlend in="SourceGraphic" in2="effect1_dropShadow_0_15070" result="shape"/></filter><filter id="filter2_d_0_15070" x="31.012" y="27.65" width="8.56" height="9.117" filterUnits="userSpaceOnUse" color-interpolation-filters="sRGB"><feFlood flood-opacity="0" result="BackgroundImageFix"/><feColorMatrix in="SourceAlpha" values="0 0 0 0 0 0 0 0 0 0 0 0 0 0 0 0 0 0 127 0" result="hardAlpha"/><feOffset/><feGaussianBlur stdDeviation="1.879"/><feColorMatrix values="0 0 0 0 0.180392 0 0 0 0 0.811765 0 0 0 0 0.976471 0 0 0 1 0"/><feBlend in2="BackgroundImageFix" result="effect1_dropShadow_0_15070"/><feBlend in="SourceGraphic" in2="effect1_dropShadow_0_15070" result="shape"/></filter><filter id="filter3_d_0_15070" x="36.714" y="10.722" width="6.67" height="4.395" filterUnits="userSpaceOnUse" color-interpolation-filters="sRGB"><feFlood flood-opacity="0" result="BackgroundImageFix"/><feColorMatrix in="SourceAlpha" values="0 0 0 0 0 0 0 0 0 0 0 0 0 0 0 0 0 0 127 0" result="hardAlpha"/><feOffset/><feGaussianBlur stdDeviation=".902"/><feColorMatrix values="0 0 0 0 0.141176 0 0 0 0 0.772549 0 0 0 0 0.968627 0 0 0 0.6 0"/><feBlend in2="BackgroundImageFix" result="effect1_dropShadow_0_15070"/><feBlend in="SourceGraphic" in2="effect1_dropShadow_0_15070" result="shape"/></filter><filter id="filter4_d_0_15070" x="14.997" y="10.722" width="6.67" height="4.395" filterUnits="userSpaceOnUse" color-interpolation-filters="sRGB"><feFlood flood-opacity="0" result="BackgroundImageFix"/><feColorMatrix in="SourceAlpha" values="0 0 0 0 0 0 0 0 0 0 0 0 0 0 0 0 0 0 127 0" result="hardAlpha"/><feOffset/><feGaussianBlur stdDeviation=".902"/><feColorMatrix values="0 0 0 0 0.141176 0 0 0 0 0.772549 0 0 0 0 0.968627 0 0 0 0.6 0"/><feBlend in2="BackgroundImageFix" result="effect1_dropShadow_0_15070"/><feBlend in="SourceGraphic" in2="effect1_dropShadow_0_15070" result="shape"/></filter><filter id="filter5_d_0_15070" x="23.596" y="21.724" width="4.629" height="4.395" filterUnits="userSpaceOnUse" color-interpolation-filters="sRGB"><feFlood flood-opacity="0" result="BackgroundImageFix"/><feColorMatrix in="SourceAlpha" values="0 0 0 0 0 0 0 0 0 0 0 0 0 0 0 0 0 0 127 0" result="hardAlpha"/><feOffset/><feGaussianBlur stdDeviation=".902"/><feColorMatrix values="0 0 0 0 0.141176 0 0 0 0 0.772549 0 0 0 0 0.968627 0 0 0 0.6 0"/><feBlend in2="BackgroundImageFix" result="effect1_dropShadow_0_15070"/><feBlend in="SourceGraphic" in2="effect1_dropShadow_0_15070" result="shape"/></filter><filter id="filter6_d_0_15070" x="14.997" y="21.724" width="6.67" height="4.395" filterUnits="userSpaceOnUse" color-interpolation-filters="sRGB"><feFlood flood-opacity="0" result="BackgroundImageFix"/><feColorMatrix in="SourceAlpha" values="0 0 0 0 0 0 0 0 0 0 0 0 0 0 0 0 0 0 127 0" result="hardAlpha"/><feOffset/><feGaussianBlur stdDeviation=".902"/><feColorMatrix values="0 0 0 0 0.141176 0 0 0 0 0.772549 0 0 0 0 0.968627 0 0 0 0.6 0"/><feBlend in2="BackgroundImageFix" result="effect1_dropShadow_0_15070"/><feBlend in="SourceGraphic" in2="effect1_dropShadow_0_15070" result="shape"/></filter><filter id="filter7_d_0_15070" x="28.114" y="21.724" width="6.67" height="4.395" filterUnits="userSpaceOnUse" color-interpolation-filters="sRGB"><feFlood flood-opacity="0" result="BackgroundImageFix"/><feColorMatrix in="SourceAlpha" values="0 0 0 0 0 0 0 0 0 0 0 0 0 0 0 0 0 0 127 0" result="hardAlpha"/><feOffset/><feGaussianBlur stdDeviation=".902"/><feColorMatrix values="0 0 0 0 0.141176 0 0 0 0 0.772549 0 0 0 0 0.968627 0 0 0 0.6 0"/><feBlend in2="BackgroundImageFix" result="effect1_dropShadow_0_15070"/><feBlend in="SourceGraphic" in2="effect1_dropShadow_0_15070" result="shape"/></filter><filter id="filter8_d_0_15070" x="21.774" y="20.152" width="12.281" height="4.395" filterUnits="userSpaceOnUse" color-interpolation-filters="sRGB"><feFlood flood-opacity="0" result="BackgroundImageFix"/><feColorMatrix in="SourceAlpha" values="0 0 0 0 0 0 0 0 0 0 0 0 0 0 0 0 0 0 127 0" result="hardAlpha"/><feOffset/><feGaussianBlur stdDeviation=".902"/><feColorMatrix values="0 0 0 0 0.141176 0 0 0 0 0.772549 0 0 0 0 0.968627 0 0 0 0.6 0"/><feBlend in2="BackgroundImageFix" result="effect1_dropShadow_0_15070"/><feBlend in="SourceGraphic" in2="effect1_dropShadow_0_15070" result="shape"/></filter><filter id="filter9_d_0_15070" x="24.034" y="15.437" width="6.67" height="4.395" filterUnits="userSpaceOnUse" color-interpolation-filters="sRGB"><feFlood flood-opacity="0" result="BackgroundImageFix"/><feColorMatrix in="SourceAlpha" values="0 0 0 0 0 0 0 0 0 0 0 0 0 0 0 0 0 0 127 0" result="hardAlpha"/><feOffset/><feGaussianBlur stdDeviation=".902"/><feColorMatrix values="0 0 0 0 0.141176 0 0 0 0 0.772549 0 0 0 0 0.968627 0 0 0 0.6 0"/><feBlend in2="BackgroundImageFix" result="effect1_dropShadow_0_15070"/><feBlend in="SourceGraphic" in2="effect1_dropShadow_0_15070" result="shape"/></filter><filter id="filter10_d_0_15070" x="32.633" y="15.437" width="10.751" height="4.395" filterUnits="userSpaceOnUse" color-interpolation-filters="sRGB"><feFlood flood-opacity="0" result="BackgroundImageFix"/><feColorMatrix in="SourceAlpha" values="0 0 0 0 0 0 0 0 0 0 0 0 0 0 0 0 0 0 127 0" result="hardAlpha"/><feOffset/><feGaussianBlur stdDeviation=".902"/><feColorMatrix values="0 0 0 0 0.141176 0 0 0 0 0.772549 0 0 0 0 0.968627 0 0 0 0.6 0"/><feBlend in2="BackgroundImageFix" result="effect1_dropShadow_0_15070"/><feBlend in="SourceGraphic" in2="effect1_dropShadow_0_15070" result="shape"/></filter><filter id="filter11_d_0_15070" x="21.774" y="17.009" width="7.69" height="4.395" filterUnits="userSpaceOnUse" color-interpolation-filters="sRGB"><feFlood flood-opacity="0" result="BackgroundImageFix"/><feColorMatrix in="SourceAlpha" values="0 0 0 0 0 0 0 0 0 0 0 0 0 0 0 0 0 0 127 0" result="hardAlpha"/><feOffset/><feGaussianBlur stdDeviation=".902"/><feColorMatrix values="0 0 0 0 0.141176 0 0 0 0 0.772549 0 0 0 0 0.968627 0 0 0 0.6 0"/><feBlend in2="BackgroundImageFix" result="effect1_dropShadow_0_15070"/><feBlend in="SourceGraphic" in2="effect1_dropShadow_0_15070" result="shape"/></filter><filter id="filter12_d_0_15070" x="13.904" y="18.58" width="10.241" height="4.395" filterUnits="userSpaceOnUse" color-interpolation-filters="sRGB"><feFlood flood-opacity="0" result="BackgroundImageFix"/><feColorMatrix in="SourceAlpha" values="0 0 0 0 0 0 0 0 0 0 0 0 0 0 0 0 0 0 127 0" result="hardAlpha"/><feOffset/><feGaussianBlur stdDeviation=".902"/><feColorMatrix values="0 0 0 0 0.141176 0 0 0 0 0.772549 0 0 0 0 0.968627 0 0 0 0.6 0"/><feBlend in2="BackgroundImageFix" result="effect1_dropShadow_0_15070"/><feBlend in="SourceGraphic" in2="effect1_dropShadow_0_15070" result="shape"/></filter><filter id="filter13_d_0_15070" x="31.102" y="18.58" width="12.281" height="4.395" filterUnits="userSpaceOnUse" color-interpolation-filters="sRGB"><feFlood flood-opacity="0" result="BackgroundImageFix"/><feColorMatrix in="SourceAlpha" values="0 0 0 0 0 0 0 0 0 0 0 0 0 0 0 0 0 0 127 0" result="hardAlpha"/><feOffset/><feGaussianBlur stdDeviation=".902"/><feColorMatrix values="0 0 0 0 0.141176 0 0 0 0 0.772549 0 0 0 0 0.968627 0 0 0 0.6 0"/><feBlend in2="BackgroundImageFix" result="effect1_dropShadow_0_15070"/><feBlend in="SourceGraphic" in2="effect1_dropShadow_0_15070" result="shape"/></filter><filter id="filter14_d_0_15070" x="29.863" y="12.294" width="9.22" height="4.395" filterUnits="userSpaceOnUse" color-interpolation-filters="sRGB"><feFlood flood-opacity="0" result="BackgroundImageFix"/><feColorMatrix in="SourceAlpha" values="0 0 0 0 0 0 0 0 0 0 0 0 0 0 0 0 0 0 127 0" result="hardAlpha"/><feOffset/><feGaussianBlur stdDeviation=".902"/><feColorMatrix values="0 0 0 0 0.141176 0 0 0 0 0.772549 0 0 0 0 0.968627 0 0 0 0.6 0"/><feBlend in2="BackgroundImageFix" result="effect1_dropShadow_0_15070"/><feBlend in="SourceGraphic" in2="effect1_dropShadow_0_15070" result="shape"/></filter><filter id="filter15_d_0_15070" x="20.536" y="12.294" width="7.69" height="4.395" filterUnits="userSpaceOnUse" color-interpolation-filters="sRGB"><feFlood flood-opacity="0" result="BackgroundImageFix"/><feColorMatrix in="SourceAlpha" values="0 0 0 0 0 0 0 0 0 0 0 0 0 0 0 0 0 0 127 0" result="hardAlpha"/><feOffset/><feGaussianBlur stdDeviation=".902"/><feColorMatrix values="0 0 0 0 0.141176 0 0 0 0 0.772549 0 0 0 0 0.968627 0 0 0 0.6 0"/><feBlend in2="BackgroundImageFix" result="effect1_dropShadow_0_15070"/><feBlend in="SourceGraphic" in2="effect1_dropShadow_0_15070" result="shape"/></filter><filter id="filter16_d_0_15070" x="6.617" y="13.865" width="12.281" height="4.395" filterUnits="userSpaceOnUse" color-interpolation-filters="sRGB"><feFlood flood-opacity="0" result="BackgroundImageFix"/><feColorMatrix in="SourceAlpha" values="0 0 0 0 0 0 0 0 0 0 0 0 0 0 0 0 0 0 127 0" result="hardAlpha"/><feOffset/><feGaussianBlur stdDeviation=".902"/><feColorMatrix values="0 0 0 0 0.141176 0 0 0 0 0.772549 0 0 0 0 0.968627 0 0 0 0.6 0"/><feBlend in2="BackgroundImageFix" result="effect1_dropShadow_0_15070"/><feBlend in="SourceGraphic" in2="effect1_dropShadow_0_15070" result="shape"/></filter><linearGradient id="paint0_linear_0_15070" x1="40.474" y1="21.368" x2="56.483" y2="23.072" gradientUnits="userSpaceOnUse"><stop stop-color="#4EA0F2"/><stop offset="1" stop-color="#133764"/></linearGradient><linearGradient id="paint1_linear_0_15070" x1="60.368" y1="18.716" x2="76.277" y2="20.832" gradientUnits="userSpaceOnUse"><stop stop-color="#4EA0F2"/><stop offset="1" stop-color="#122E53"/></linearGradient><linearGradient id="paint2_linear_0_15070" x1="39.877" y1="4.875" x2="33.68" y2="21.161" gradientUnits="userSpaceOnUse"><stop stop-color="#2E4469"/><stop offset="1" stop-color="#6F90BC"/></linearGradient><linearGradient id="paint3_linear_0_15070" x1="63.684" y1="7" x2="58.701" y2="38.505" gradientUnits="userSpaceOnUse"><stop stop-color="#2E4469"/><stop offset="1" stop-color="#6F90BC"/></linearGradient></defs></svg>