<svg width="50" height="50" xmlns="http://www.w3.org/2000/svg"><g fill="none" fill-rule="evenodd"><g stroke="#395172" stroke-linecap="round" stroke-width="1.764"><path d="M29.904 39.164h-1.241 0-8.167a5.88 5.88 0 01-5.88-5.88v-3.717h0V16.82a5.88 5.88 0 015.88-5.88h9.408a5.88 5.88 0 015.88 5.88v2.409h0v9.752" stroke-linejoin="round"/><path d="M22.26 14.468h5.88a4.116 4.116 0 014.116 4.116v1.997h0V31.52a4.116 4.116 0 01-4.116 4.116h-1.004 0-4.876a4.116 4.116 0 01-4.116-4.116v-1.624h0V20.9"/><path d="M25.788 32.696h-1.176a2.94 2.94 0 01-2.94-2.94v-1.001h0v-8.407a2.94 2.94 0 012.94-2.94h1.176a2.94 2.94 0 012.94 2.94v1.209h0v8.163M33.07 8h6.242v6.087M16.742 8H10.5v6.087m22.57 28.017h6.242v-6.087m-22.57 6.087H10.5v-6.087" stroke-linejoin="round"/></g><rect width="192" height="84" rx="14" transform="translate(-17 -17)" stroke="#F0F0F0"/><path stroke="#395172" stroke-width="1.764" stroke-linecap="round" stroke-linejoin="round" d="M25.2 20.332v9.309"/></g></svg>