<svg width="50" height="50" fill="none" xmlns="http://www.w3.org/2000/svg"><g clip-path="url(#vilkbqzkxa)"><path d="M15.074 22.85c0 .55.06.994.166 1.32.121.327.272.683.484 1.069a.636.636 0 01.106.341c0 .149-.09.297-.287.445l-.954.623a.735.735 0 01-.393.134c-.151 0-.303-.074-.454-.208a4.6 4.6 0 01-.545-.697 11.36 11.36 0 01-.469-.875c-1.18 1.364-2.663 2.047-4.448 2.047-1.271 0-2.285-.356-3.027-1.068-.741-.712-1.12-1.662-1.12-2.849 0-1.26.454-2.284 1.378-3.056.923-.771 2.148-1.157 3.707-1.157.514 0 1.044.045 1.604.119s1.135.193 1.74.326v-1.083c0-1.127-.242-1.913-.711-2.373-.485-.46-1.302-.683-2.467-.683-.53 0-1.074.06-1.634.193-.56.134-1.105.297-1.634.505a4.396 4.396 0 01-.53.192.943.943 0 01-.242.045c-.212 0-.318-.148-.318-.46v-.727c0-.237.03-.415.106-.52.076-.103.212-.207.424-.31.53-.268 1.165-.49 1.906-.668a9.35 9.35 0 012.361-.282c1.8 0 3.117.4 3.964 1.202.833.8 1.256 2.017 1.256 3.649v4.807h.03zM8.93 25.106c.5 0 1.014-.088 1.559-.267a3.377 3.377 0 001.437-.949 2.34 2.34 0 00.515-.95c.09-.355.151-.786.151-1.29v-.623a12.89 12.89 0 00-1.392-.252c-.484-.06-.953-.09-1.422-.09-1.014 0-1.756.194-2.255.594-.5.4-.741.964-.741 1.706 0 .697.181 1.217.56 1.573.363.37.892.549 1.588.549zm12.15 1.603c-.271 0-.453-.045-.574-.149-.121-.089-.227-.296-.318-.578l-3.556-11.468c-.09-.296-.136-.49-.136-.593 0-.238.121-.371.363-.371h1.483c.288 0 .484.044.59.148.121.09.212.297.303.579l2.542 9.82 2.36-9.82c.076-.297.167-.49.288-.579.121-.089.333-.148.605-.148h1.21c.288 0 .485.044.606.148.121.09.227.297.288.579l2.39 9.94 2.618-9.94c.09-.297.197-.49.303-.579.12-.089.318-.148.59-.148h1.407c.242 0 .378.119.378.37 0 .075-.015.15-.03.238-.015.09-.045.208-.106.371l-3.646 11.468c-.091.296-.197.49-.318.578-.121.09-.318.148-.575.148h-1.302c-.287 0-.484-.044-.605-.148-.12-.104-.227-.297-.287-.593l-2.346-9.569-2.33 9.554c-.076.297-.166.49-.287.593-.122.104-.333.149-.606.149h-1.301zm19.445.4c-.787 0-1.574-.089-2.33-.267-.757-.178-1.347-.37-1.74-.593-.242-.134-.409-.282-.47-.416a1.03 1.03 0 01-.09-.415v-.757c0-.311.12-.46.348-.46.09 0 .181.015.272.045.09.03.227.09.378.148a8.359 8.359 0 001.665.52 9.261 9.261 0 001.8.178c.954 0 1.695-.164 2.21-.49.514-.326.787-.801.787-1.41a1.43 1.43 0 00-.409-1.038c-.272-.282-.787-.534-1.528-.771l-2.194-.668c-1.105-.34-1.922-.845-2.421-1.513-.5-.653-.757-1.38-.757-2.151 0-.623.136-1.172.409-1.647a3.84 3.84 0 011.09-1.216 4.84 4.84 0 011.573-.772 6.718 6.718 0 011.906-.252c.333 0 .681.015 1.014.06.348.044.666.103.984.163.302.074.59.148.862.237.273.09.484.178.636.267.212.119.363.237.454.371.09.119.136.282.136.49v.697c0 .311-.121.474-.348.474-.121 0-.318-.059-.575-.178-.863-.385-1.831-.578-2.905-.578-.863 0-1.544.133-2.013.415-.469.282-.711.712-.711 1.32 0 .416.151.772.454 1.054.303.282.862.564 1.664.816l2.149.668c1.09.34 1.876.815 2.345 1.424.47.608.696 1.305.696 2.077a3.75 3.75 0 01-.393 1.72c-.272.505-.636.95-1.105 1.306-.469.37-1.029.638-1.68.83a7.328 7.328 0 01-2.163.312z" fill="#fff"/><path fill-rule="evenodd" clip-rule="evenodd" d="M43.385 34.318c-4.978 3.605-12.211 5.519-18.43 5.519-8.716 0-16.57-3.16-22.501-8.412-.47-.415-.045-.979.514-.652 6.416 3.649 14.33 5.86 22.516 5.86 5.523 0 11.591-1.128 17.174-3.442.833-.371 1.544.534.727 1.127z" fill="#F90"/><path fill-rule="evenodd" clip-rule="evenodd" d="M45.458 32.004c-.636-.801-4.207-.386-5.826-.193-.484.06-.56-.356-.12-.668 2.844-1.958 7.52-1.394 8.064-.741.545.667-.151 5.251-2.814 7.447-.409.341-.802.163-.62-.282.605-1.469 1.951-4.777 1.316-5.563z" fill="#F90"/></g><defs><clipPath id="vilkbqzkxa"><path fill="#fff" transform="translate(2 13)" d="M0 0h46v27H0z"/></clipPath></defs></svg>