<svg width="50" height="50" fill="none" xmlns="http://www.w3.org/2000/svg"><path opacity=".01" fill="#D8D8D8" d="M0 0h50v50H0z"/><path fill-rule="evenodd" clip-rule="evenodd" d="M38.912 9.364a1.65 1.65 0 011.789 1.498l.632 7.169a2.593 2.593 0 01-2.086 2.773l-8.831 1.723a1.65 1.65 0 11-.632-3.24l5.824-1.136a2.695 2.695 0 002.169-2.882l-.364-4.117a1.65 1.65 0 011.5-1.788zM6 26.093c0-.911.773-1.65 1.727-1.65h34.546c.954 0 1.727.739 1.727 1.65 0 .911-.773 1.65-1.727 1.65H7.727c-.954 0-1.727-.739-1.727-1.65zm3.128-15.23a1.65 1.65 0 113.287.29l-.363 4.116a2.695 2.695 0 002.168 2.882l5.825 1.137a1.65 1.65 0 11-.632 3.239l-8.831-1.724a2.593 2.593 0 01-2.087-2.772l.633-7.169zm29.784 32.666a1.65 1.65 0 001.789-1.498l.632-7.169a2.593 2.593 0 00-2.086-2.773l-8.831-1.723a1.65 1.65 0 00-.632 3.24l5.824 1.136a2.695 2.695 0 012.169 2.882l-.364 4.117a1.65 1.65 0 001.5 1.788zM9.128 42.031a1.65 1.65 0 103.287-.29l-.363-4.117a2.695 2.695 0 012.168-2.883l5.825-1.136a1.65 1.65 0 10-.632-3.239l-8.831 1.723a2.593 2.593 0 00-2.087 2.773l.633 7.169z" fill="url(#paint0_linear_2650_28329)"/><path fill-rule="evenodd" clip-rule="evenodd" d="M30.906 14.543c.726 0 1.315-.59 1.315-1.316A6.227 6.227 0 0025.994 7h-2.631a6.227 6.227 0 00-6.227 6.227c0 .727.589 1.316 1.315 1.316h12.455zM18.726 16.9a3.947 3.947 0 00-3.947 3.947v8.782c0 5.467 4.432 9.9 9.9 9.9 5.467 0 9.9-4.433 9.9-9.9v-8.782a3.947 3.947 0 00-3.947-3.947H18.725z" fill="url(#paint1_linear_2650_28329)"/><path d="M19 23a4 4 0 014-4h3.3a4 4 0 014 4v8.35a5.65 5.65 0 01-11.3 0V23z" fill="#152137"/><g filter="url(#filter0_d_2650_28329)"><rect x="22.204" y="22" width="4.796" height="1.044" rx=".522" fill="#53B5FF"/></g><rect opacity=".25" x="22.204" y="24.044" width="3.198" height="1.044" rx=".522" fill="#53B5FF"/><g filter="url(#filter1_d_2650_28329)"><rect width="3.995" height="1" rx=".5" transform="matrix(-1 0 0 1 26.199 26.089)" fill="#53B5FF"/></g><g filter="url(#filter2_d_2650_28329)"><rect width="6" height="1" rx=".5" transform="matrix(-1 0 0 1 28.199 28.089)" fill="#53B5FF"/></g><rect opacity=".25" x="22.204" y="30.089" width="3.198" height="1.044" rx=".522" fill="#53B5FF"/><g filter="url(#filter3_d_2650_28329)"><rect width="3.995" height="1" rx=".5" transform="matrix(-1 0 0 1 26.199 32.133)" fill="#53B5FF"/></g><defs><filter id="filter0_d_2650_28329" x="18.446" y="18.242" width="12.312" height="8.56" filterUnits="userSpaceOnUse" color-interpolation-filters="sRGB"><feFlood flood-opacity="0" result="BackgroundImageFix"/><feColorMatrix in="SourceAlpha" values="0 0 0 0 0 0 0 0 0 0 0 0 0 0 0 0 0 0 127 0" result="hardAlpha"/><feOffset/><feGaussianBlur stdDeviation="1.879"/><feColorMatrix values="0 0 0 0 0.180392 0 0 0 0 0.811765 0 0 0 0 0.976471 0 0 0 1 0"/><feBlend in2="BackgroundImageFix" result="effect1_dropShadow_2650_28329"/><feBlend in="SourceGraphic" in2="effect1_dropShadow_2650_28329" result="shape"/></filter><filter id="filter1_d_2650_28329" x="18.446" y="22.331" width="11.511" height="8.516" filterUnits="userSpaceOnUse" color-interpolation-filters="sRGB"><feFlood flood-opacity="0" result="BackgroundImageFix"/><feColorMatrix in="SourceAlpha" values="0 0 0 0 0 0 0 0 0 0 0 0 0 0 0 0 0 0 127 0" result="hardAlpha"/><feOffset/><feGaussianBlur stdDeviation="1.879"/><feColorMatrix values="0 0 0 0 0.180392 0 0 0 0 0.811765 0 0 0 0 0.976471 0 0 0 1 0"/><feBlend in2="BackgroundImageFix" result="effect1_dropShadow_2650_28329"/><feBlend in="SourceGraphic" in2="effect1_dropShadow_2650_28329" result="shape"/></filter><filter id="filter2_d_2650_28329" x="18.441" y="24.331" width="13.516" height="8.516" filterUnits="userSpaceOnUse" color-interpolation-filters="sRGB"><feFlood flood-opacity="0" result="BackgroundImageFix"/><feColorMatrix in="SourceAlpha" values="0 0 0 0 0 0 0 0 0 0 0 0 0 0 0 0 0 0 127 0" result="hardAlpha"/><feOffset/><feGaussianBlur stdDeviation="1.879"/><feColorMatrix values="0 0 0 0 0.180392 0 0 0 0 0.811765 0 0 0 0 0.976471 0 0 0 1 0"/><feBlend in2="BackgroundImageFix" result="effect1_dropShadow_2650_28329"/><feBlend in="SourceGraphic" in2="effect1_dropShadow_2650_28329" result="shape"/></filter><filter id="filter3_d_2650_28329" x="18.446" y="28.375" width="11.511" height="8.516" filterUnits="userSpaceOnUse" color-interpolation-filters="sRGB"><feFlood flood-opacity="0" result="BackgroundImageFix"/><feColorMatrix in="SourceAlpha" values="0 0 0 0 0 0 0 0 0 0 0 0 0 0 0 0 0 0 127 0" result="hardAlpha"/><feOffset/><feGaussianBlur stdDeviation="1.879"/><feColorMatrix values="0 0 0 0 0.180392 0 0 0 0 0.811765 0 0 0 0 0.976471 0 0 0 1 0"/><feBlend in2="BackgroundImageFix" result="effect1_dropShadow_2650_28329"/><feBlend in="SourceGraphic" in2="effect1_dropShadow_2650_28329" result="shape"/></filter><linearGradient id="paint0_linear_2650_28329" x1="2.5" y1="27.5" x2="47.371" y2="25.098" gradientUnits="userSpaceOnUse"><stop stop-color="#2E4469"/><stop offset=".469" stop-color="#6F90BC"/><stop offset="1" stop-color="#2E4469"/></linearGradient><linearGradient id="paint1_linear_2650_28329" x1="29" y1="50.5" x2="49.147" y2="-4.246" gradientUnits="userSpaceOnUse"><stop stop-color="#2E4469"/><stop offset="1" stop-color="#6F90BC"/></linearGradient></defs></svg>