<svg width="50" height="50" fill="none" xmlns="http://www.w3.org/2000/svg"><rect x="4" y="4" width="42" height="42" rx="10" fill="url(#64c6cl5hca)"/><path d="M26.724 20.11a377.297 377.297 0 01-.963 4.503c-1.5 0-2.98.044-4.457-.023-.807-.045-1.076.247-1.232 1.03-.896 4.413-1.837 8.826-2.778 13.238-.09.403-.201.784-.291 1.187h-5.936c1.075-5.129 2.128-10.214 3.226-15.41H11c.314-1.434.56-2.733.874-4.032.044-.202.47-.448.716-.448.851-.067 1.703-.022 2.643-.022.83-3.763 1.3-7.75 5.555-9.34 2.89-1.076 5.78-.717 8.736.268-.493 1.635-.94 3.158-1.411 4.749-1.882-.493-3.763-1.277-5.488.09-1.277 1.007-1.3 2.597-1.568 4.188 1.904.022 3.718.022 5.667.022z" fill="url(#664sk42xlb)"/><path d="M29.77 36.35c-.425-1.053-2.217-.852-1.747-2.397.403-1.367 1.658-.38 2.509-.986-.448-.336-.963-.605-1.3-1.008-.268-.336-.47-.873-.402-1.299.044-.246.582-.515.94-.627.448-.134.941-.112 1.747-.18-.671-.47-1.187-.716-1.523-1.097-.29-.336-.56-.873-.492-1.276.044-.292.627-.583 1.008-.717.425-.135.918-.067 1.433-.112-.426-1.053-2.262-.941-1.77-2.464.426-1.277 1.703-.291 2.487-1.008-.38-.269-.762-.582-1.187-.829-.583-.336-.762-.739-.56-1.456.201-.694.627-.716 1.165-.716h1.836c-.157.47-.269.85-.425 1.343.582.404 1.164.83 1.77 1.255.56.403 1.254.65.94 1.635-.291.896-.986.605-1.546.717-.29.044-.582.044-1.232.112.672.47 1.188.716 1.501 1.097.291.336.56.874.493 1.255-.045.29-.605.582-1.008.694-.426.134-.918.112-1.411.157.448 1.03 2.172.918 1.77 2.396-.381 1.39-1.725.336-2.442.941.38.919 2.217.806 1.725 2.33-.404 1.276-1.703.29-2.51 1.008.471.313 1.009.582 1.367.985.269.291.47.829.403 1.21-.067.29-.56.56-.918.716-.291.135-.672.112-.985.09-1.232-.045-2.263.18-2.15 1.814h-2.644c.247-1.008.47-1.97.762-2.911.067-.224.448-.47.716-.516.538-.09 1.098-.09 1.68-.157z" fill="url(#cglhzvv2tc)"/><path d="M34.788 17.02c-1.904-.023-3.002-1.009-3.002-2.711 0-2.486 1.613-3.965 4.279-3.92 1.814.023 2.979 1.165 2.934 2.934-.023 2.375-1.568 3.719-4.211 3.696z" fill="url(#2oz3fccjxd)"/><defs><linearGradient id="64c6cl5hca" x1="25" y1="4" x2="25" y2="46" gradientUnits="userSpaceOnUse"><stop stop-color="#F6C482"/><stop offset="1" stop-color="#F2B361"/></linearGradient><linearGradient id="664sk42xlb" x1="25" y1="10.136" x2="25" y2="40.045" gradientUnits="userSpaceOnUse"><stop stop-color="#343436"/><stop offset="1" stop-color="#1B1B1C"/></linearGradient><linearGradient id="cglhzvv2tc" x1="25" y1="10.136" x2="25" y2="40.045" gradientUnits="userSpaceOnUse"><stop stop-color="#343436"/><stop offset="1" stop-color="#1B1B1C"/></linearGradient><linearGradient id="2oz3fccjxd" x1="25" y1="10.136" x2="25" y2="40.045" gradientUnits="userSpaceOnUse"><stop stop-color="#343436"/><stop offset="1" stop-color="#1B1B1C"/></linearGradient></defs></svg>