<svg width="50" height="50" fill="none" xmlns="http://www.w3.org/2000/svg"><path fill-rule="evenodd" clip-rule="evenodd" d="M47.283 23.008L27.133 2.87a2.974 2.974 0 00-4.204 0l-4.185 4.182 5.308 5.305a3.53 3.53 0 014.47 4.497l5.117 5.113a3.532 3.532 0 013.654 5.837 3.538 3.538 0 01-5.004 0 3.534 3.534 0 01-.769-3.844l-4.771-4.768v12.547a3.534 3.534 0 01.935 5.668 3.538 3.538 0 01-5.002 0 3.534 3.534 0 011.159-5.771V18.972a3.532 3.532 0 01-1.92-4.635l-5.233-5.23L2.871 22.914a2.97 2.97 0 000 4.201l20.152 20.138a2.975 2.975 0 004.203 0L47.283 27.21a2.97 2.97 0 000-4.202" fill="url(#paint0_radial_1539_33818)"/><defs><radialGradient id="paint0_radial_1539_33818" cx="0" cy="0" r="1" gradientUnits="userSpaceOnUse" gradientTransform="rotate(94.299 7.916 13.054) scale(42.1032 42.1303)"><stop stop-color="#7AA6DD"/><stop offset="1" stop-color="#56759E"/></radialGradient></defs></svg>