<svg width="50" height="50" fill="none" xmlns="http://www.w3.org/2000/svg"><path d="M8.822 35.467l1.51.871L27.146 7.213l-1.51-.871L8.823 35.467z" fill="#E535AB"/><path d="M42.108 33.14H8.476v1.743h33.632V33.14z" fill="#E535AB"/><path d="M9.142 34.12l16.822 9.712.871-1.51-16.822-9.712-.871 1.51zM23.755 8.806l16.822 9.712.872-1.509-16.822-9.713-.872 1.51z" fill="#E535AB"/><path d="M9.146 17.002l.872 1.51L26.84 8.799l-.872-1.51-16.822 9.713z" fill="#E535AB"/><path d="M23.451 7.214l16.816 29.125 1.51-.872L24.96 6.342l-1.51.872zm-11.898 8.633H9.81v19.425h1.743V15.847z" fill="#E535AB"/><path d="M40.785 15.847h-1.743v19.425h1.743V15.847z" fill="#E535AB"/><path d="M24.906 41.775l.761 1.319 14.63-8.447-.76-1.319-14.631 8.447z" fill="#E535AB"/><path d="M43.095 35.839a3.67 3.67 0 01-5.009 1.343 3.67 3.67 0 01-1.344-5.008 3.67 3.67 0 015.009-1.344 3.654 3.654 0 011.344 5.009zM13.842 18.944a3.67 3.67 0 01-5.009 1.344A3.67 3.67 0 017.49 15.28a3.67 3.67 0 015.009-1.345 3.673 3.673 0 011.344 5.009zM7.5 35.839a3.673 3.673 0 011.344-5.009 3.673 3.673 0 015.008 1.344 3.673 3.673 0 01-1.344 5.008A3.668 3.668 0 017.5 35.84zm29.253-16.895a3.673 3.673 0 011.344-5.008 3.673 3.673 0 015.008 1.344 3.673 3.673 0 01-1.344 5.008 3.67 3.67 0 01-5.008-1.344zM25.297 46.118a3.661 3.661 0 01-3.664-3.665 3.661 3.661 0 013.664-3.664 3.661 3.661 0 013.665 3.664 3.668 3.668 0 01-3.665 3.665zm0-33.789a3.661 3.661 0 01-3.664-3.665A3.661 3.661 0 0125.297 5a3.661 3.661 0 013.665 3.665 3.661 3.661 0 01-3.665 3.664z" fill="#E535AB"/></svg>