<svg width="50" height="50" fill="none" xmlns="http://www.w3.org/2000/svg"><path fill-rule="evenodd" clip-rule="evenodd" d="M6.845 16H3l3.715 3.715L3 23.43h3.845l3.715-3.715L6.845 16z" fill="url(#paint0_radial_1538_33628)"/><path fill-rule="evenodd" clip-rule="evenodd" d="M12.655 16H8.81l3.716 3.715L8.81 23.43h3.845l3.715-3.715L12.655 16z" fill="url(#paint1_radial_1538_33628)"/><path fill-rule="evenodd" clip-rule="evenodd" d="M4.296 27.945h2.225l-1.296 7.387H3l1.296-7.387zm.13-1.966c.13-.713.799-1.339 1.533-1.339.735 0 1.231.605 1.123 1.34-.108.734-.799 1.338-1.555 1.338-.756 0-1.21-.648-1.101-1.339zm10.303 4.817l-.8 4.536h-2.203l.735-4.212c.173-.95-.346-1.34-1.059-1.34-.734 0-1.404.433-1.62 1.426l-.734 4.126H6.845l1.296-7.387h2.225l-.108.691c.496-.562 1.339-.907 2.181-.907 1.49.021 2.635 1.101 2.29 3.067zm8.683.842a3.914 3.914 0 01-.238.886h-5.292c.13.82.821 1.037 1.512 1.037.627 0 1.124-.173 1.556-.583l1.555 1.274c-.864.864-1.88 1.296-3.24 1.296-2.549 0-3.888-1.836-3.521-4.04a4.471 4.471 0 014.428-3.758c2.117 0 3.65 1.642 3.24 3.888zm-2.095-.799c-.065-.82-.648-1.145-1.34-1.145a1.922 1.922 0 00-1.792 1.145h3.132zm8.445-3.045l-.432 2.505c-.864-.13-2.268.173-2.527 1.685l.022-.086-.605 3.434h-2.203l1.296-7.387h2.225l-.238 1.339c.454-1.015 1.426-1.49 2.462-1.49zm3.003 4.903c-.108.67.432.713 1.425.626l-.345 2.009c-2.657.302-3.65-.583-3.283-2.635l.453-2.614h-1.188l.389-2.138h1.166l.26-1.404 2.332-.67-.367 2.074h1.534l-.389 2.138H33.24l-.475 2.614zm3.78-4.752h2.225l-1.296 7.387h-2.225l1.296-7.387zm.13-1.966c.107-.713.799-1.339 1.533-1.339.734 0 1.231.605 1.123 1.34-.108.734-.799 1.338-1.555 1.338-.756 0-1.231-.648-1.102-1.339zm11.275 1.966l-1.296 7.387h-2.225l.086-.497a3.348 3.348 0 01-2.225.713c-2.397 0-3.304-2.074-2.916-4.082.346-1.901 1.858-3.716 4.148-3.716.972 0 1.663.39 2.073.994l.13-.778h2.225v-.021zm-2.852 3.715c.195-1.123-.41-1.814-1.425-1.814a2.052 2.052 0 00-2.052 1.792c-.195 1.102.389 1.793 1.425 1.793.994.022 1.858-.67 2.052-1.771z" fill="url(#paint2_radial_1538_33628)"/><defs><radialGradient id="paint0_radial_1538_33628" cx="0" cy="0" r="1" gradientUnits="userSpaceOnUse" gradientTransform="rotate(96.351 -4.144 11.2) scale(12.149 12.6608)"><stop stop-color="#7AA6DD"/><stop offset="1" stop-color="#56759E"/></radialGradient><radialGradient id="paint1_radial_1538_33628" cx="0" cy="0" r="1" gradientUnits="userSpaceOnUse" gradientTransform="rotate(96.351 -1.24 13.8) scale(12.149 12.6608)"><stop stop-color="#7AA6DD"/><stop offset="1" stop-color="#56759E"/></radialGradient><radialGradient id="paint2_radial_1538_33628" cx="0" cy="0" r="1" gradientUnits="userSpaceOnUse" gradientTransform="rotate(114.26 3.763 20.476) scale(19.4488 69.0537)"><stop stop-color="#7AA6DD"/><stop offset="1" stop-color="#56759E"/></radialGradient></defs></svg>