<svg width="50" height="50" xmlns="http://www.w3.org/2000/svg" xmlns:xlink="http://www.w3.org/1999/xlink"><defs><rect id="a" x=".03" y="0" width="5.622" height="21.044" rx="2.811"/><rect id="c" x=".03" y="0" width="5.622" height="21.044" rx="2.811"/><rect id="e" x=".03" y="0" width="5.622" height="25.863" rx="2.811"/></defs><g fill="none" fill-rule="evenodd"><g transform="translate(11.877 22.438)"><mask id="b" fill="#fff"><use xlink:href="#a"/></mask><use fill="#4E56A6" xlink:href="#a"/><path d="M-.842 13.963c1.097.092 2.216-.68 3.356-2.32 1.14-1.64 2.627-1.81 4.46-.511L5.98 5.755l-8.202 2.258 1.38 5.95z" fill="#373C75" mask="url(#b)" transform="rotate(29 2.376 9.863)"/></g><g transform="translate(32.149 22.438)"><mask id="d" fill="#fff"><use xlink:href="#c"/></mask><use fill="#4E56A6" xlink:href="#c"/><path d="M-.842 13.963c1.097.092 2.216-.68 3.356-2.32 1.14-1.64 2.627-1.81 4.46-.511L5.98 5.755l-8.202 2.258 1.38 5.95z" fill="#373C75" mask="url(#d)" transform="rotate(29 2.376 9.863)"/></g><g transform="translate(22.189 22.438)"><mask id="f" fill="#fff"><use xlink:href="#e"/></mask><use fill="#4E56A6" xlink:href="#e"/><path d="M-.614 15.495c1.284-1.03 2.339-2.328 3.165-3.894.826-1.566 2.17-1.757 4.03-.571l-.995-5.377-8.203 2.258 2.003 7.584z" fill="#373C75" mask="url(#f)" transform="rotate(29 1.982 10.574)"/></g><path d="M25 32.158c2.211 0 3.18 3.9 5.141 3.9 1.961 0 2.122-3.9 4.967-3.9 2.845 0 2.362 3.9 5.276 3.9 2.914 0 4.616-6.275 4.616-11.934C45 12.458 36.046 3 25 3S5 12.458 5 24.124c0 5.568 1.233 11.933 4.659 11.933 2.387 0 1.635-4.046 4.833-3.899 3.199.148 3.492 3.9 5.637 3.9 2.375 0 2.66-3.9 4.871-3.9z" fill="#FB70A9"/><path d="M38.725 8.76C42.59 12.61 45 18.07 45 24.123c0 5.659-1.702 11.933-4.616 11.933-.719 0-1.23-.237-1.637-.594 2.043-1.913 3.2-7.845 3.2-13.288 0-4.898-1.16-9.463-3.16-13.299z" fill="#E24CA6"/><g transform="translate(15.12 8.462)"><path d="M9.8 21.044c3.096 0 6.007-1.006 7.736-3.556 1.194-1.76 2.223-4.593 2.223-6.966C19.759 4.711 15.034 0 9.799 0 4.565 0 0 4.71 0 10.522c0 2.19.649 4.868 1.737 6.552 1.8 2.784 4.801 3.97 8.062 3.97z" fill="#FFF"/><ellipse fill="#030776" cx="7.871" cy="7.47" rx="3.695" ry="4.096"/><circle fill="#FFF" cx="7.39" cy="6.586" r="1.928"/></g></g></svg>