<svg width="50" height="50" xmlns="http://www.w3.org/2000/svg"><g fill="none"><path d="M14.173 35.893h-1.552a86.606 86.606 0 00-.454-7.392h-.013L9.79 35.893H8.608l-2.35-7.392h-.013a120.89 120.89 0 00-.33 7.392H4.5c.091-3.298.32-6.39.687-9.276H7.11l2.24 6.816h.013l2.253-6.816h1.842c.403 3.38.641 6.473.714 9.276m6.733-6.843c-.632 3.43-1.466 5.922-2.501 7.478-.806 1.198-1.69 1.797-2.652 1.797-.257 0-.573-.077-.948-.231v-.827c.183.026.398.041.646.041.449 0 .81-.123 1.086-.371.329-.302.494-.641.494-1.017 0-.257-.129-.783-.385-1.58l-1.704-5.29h1.526l1.222 3.956c.275.899.39 1.526.344 1.883.669-1.786 1.136-3.733 1.402-5.84h1.47z" fill="#5D87A1"/><path d="M41.572 35.893h-4.41v-9.276h1.483v8.134h2.927v1.142zm-5.565.224l-1.705-.841c.151-.124.296-.259.426-.415.725-.851 1.086-2.11 1.086-3.778 0-3.068-1.204-4.604-3.613-4.604-1.182 0-2.103.39-2.762 1.169-.724.852-1.086 2.107-1.086 3.765 0 1.63.32 2.827.961 3.586.587.687 1.471 1.03 2.653 1.03.441 0 .846-.053 1.215-.162l2.22 1.292.605-1.042zm-5.524-2.08c-.375-.604-.563-1.574-.563-2.912 0-2.336.71-3.505 2.13-3.505.742 0 1.287.28 1.635.838.375.605.563 1.567.563 2.886 0 2.354-.71 3.532-2.13 3.532-.742 0-1.286-.279-1.635-.839m-2.777-.715c0 .787-.288 1.432-.865 1.938-.577.503-1.35.755-2.32.755-.908 0-1.788-.29-2.639-.866l.399-.797c.732.367 1.396.55 1.991.55.559 0 .996-.124 1.313-.37a1.26 1.26 0 00.505-1.03c0-.551-.384-1.022-1.09-1.416-.65-.357-1.95-1.104-1.95-1.104-.704-.513-1.057-1.065-1.057-1.973 0-.752.263-1.359.79-1.82.526-.464 1.206-.695 2.04-.695.861 0 1.644.23 2.349.687l-.358.797a4.541 4.541 0 00-1.785-.384c-.476 0-.843.114-1.098.343-.257.229-.416.522-.416.88 0 .549.392 1.026 1.116 1.428.66.358 1.992 1.117 1.992 1.117.723.513 1.083 1.059 1.083 1.96" fill="#F8981D"/><path d="M43.434 23.51c-.897-.022-1.591.068-2.174.315-.169.067-.436.067-.46.28.091.09.102.235.18.359.135.224.37.526.583.683.235.18.47.358.718.515.436.27.93.427 1.355.695.247.157.493.359.741.527.122.09.2.235.358.291v-.034c-.08-.1-.102-.246-.18-.359l-.336-.324a5.334 5.334 0 00-1.165-1.131c-.359-.248-1.144-.584-1.29-.997l-.022-.023c.247-.023.54-.112.773-.181.382-.1.73-.078 1.12-.178.18-.045.36-.102.54-.157v-.101c-.203-.202-.348-.47-.561-.661-.57-.493-1.2-.975-1.85-1.379-.347-.224-.795-.369-1.165-.56-.134-.068-.359-.1-.437-.213-.201-.247-.315-.571-.46-.863-.324-.616-.639-1.3-.919-1.95-.202-.438-.325-.874-.571-1.278-1.155-1.905-2.41-3.059-4.338-4.191-.414-.236-.907-.336-1.433-.46l-.841-.044c-.18-.08-.36-.292-.516-.393-.64-.403-2.286-1.277-2.756-.123-.303.729.448 1.446.706 1.816.19.257.437.549.57.84.08.19.101.393.18.594.18.494.347 1.042.583 1.502.123.235.257.482.415.694.09.124.246.18.28.382-.156.223-.168.56-.258.84-.403 1.266-.246 2.835.326 3.766.179.28.605.897 1.176.66.505-.201.393-.84.538-1.4.034-.136.012-.224.079-.313v.022c.156.313.314.615.459.93.348.548.953 1.12 1.457 1.5.269.203.481.55.818.674v-.034h-.022c-.068-.1-.168-.145-.258-.223a5.442 5.442 0 01-.582-.673 14.435 14.435 0 01-1.255-2.04c-.18-.348-.336-.728-.482-1.076-.068-.134-.068-.336-.18-.403-.169.246-.414.46-.537.76-.214.484-.236 1.077-.315 1.695l-.044.021c-.357-.09-.481-.459-.617-.772-.336-.796-.392-2.074-.1-2.993.077-.235.415-.975.28-1.198-.068-.215-.292-.337-.415-.506a4.556 4.556 0 01-.404-.717c-.268-.627-.404-1.322-.693-1.95-.136-.292-.37-.594-.56-.863-.214-.302-.45-.515-.618-.874-.056-.123-.134-.325-.044-.459.021-.09.067-.124.156-.146.146-.123.56.033.706.1.416.169.763.326 1.11.56.157.113.325.326.526.382h.236c.358.078.761.022 1.098.123a7.213 7.213 0 011.614.773 9.944 9.944 0 013.496 3.834c.134.257.191.493.313.761.236.55.528 1.11.763 1.648.235.527.46 1.064.796 1.502.168.235.841.358 1.144.482.223.1.571.19.773.313.38.235.76.504 1.12.763.178.134.739.414.772.639m-11.432-9.74a1.746 1.746 0 00-.459.057v.022h.022c.09.18.247.304.36.46.09.18.168.358.256.537l.022-.022c.158-.112.237-.291.237-.56-.069-.08-.079-.157-.136-.236-.066-.112-.211-.168-.302-.258" fill="#5D87A1"/><path d="M44.501 35.892h.233v-1.137h-.349l-.284.776-.309-.776h-.335v1.137h.22v-.865h.012l.323.865h.167l.322-.865v.865zm-1.87 0h.246v-.944h.321v-.193h-.902v.193h.334v.944z" fill="#F8981D"/></g></svg>