<svg width="52" height="50" xmlns="http://www.w3.org/2000/svg"><defs><linearGradient x1="0%" y1="50%" x2="100%" y2="50%" id="a"><stop stop-color="#5B79A2" offset="0%"/><stop stop-color="#2E4469" offset="100%"/></linearGradient><linearGradient x1="0%" y1="50%" x2="100%" y2="50%" id="d"><stop stop-color="#5B79A2" offset="0%"/><stop stop-color="#2E4469" offset="100%"/></linearGradient><linearGradient x1="0%" y1="42.048%" x2="92.09%" y2="57.057%" id="e"><stop stop-color="#2F3F55" offset="0%"/><stop stop-color="#293F64" offset="100%"/></linearGradient><linearGradient x1="30.085%" y1="41.926%" x2="92.09%" y2="56.661%" id="g"><stop stop-color="#5F80AB" offset="0%"/><stop stop-color="#293F64" offset="100%"/></linearGradient><linearGradient x1="50%" y1="0%" x2="50%" y2="100%" id="h"><stop stop-color="#5B79A2" offset="0%"/><stop stop-color="#2E4469" offset="100%"/></linearGradient><linearGradient x1="24.379%" y1="43.701%" x2="84.171%" y2="56.786%" id="i"><stop stop-color="#76E1FF" stop-opacity=".634" offset="0%"/><stop stop-color="#637BFF" stop-opacity="0" offset="100%"/></linearGradient><linearGradient x1="-24.308%" y1="-69.108%" x2="100%" y2="31.758%" id="k"><stop stop-color="#5B79A2" offset="0%"/><stop stop-color="#2E4469" offset="100%"/></linearGradient><linearGradient x1="-24.308%" y1="-69.108%" x2="100%" y2="31.758%" id="l"><stop stop-color="#5B79A2" offset="0%"/><stop stop-color="#2E4469" offset="100%"/></linearGradient><linearGradient x1="64.133%" y1="22.034%" x2="22.005%" y2="163.626%" id="m"><stop stop-color="#76E1FF" offset="0%"/><stop stop-color="#637BFF" stop-opacity="0" offset="100%"/></linearGradient><linearGradient x1="50%" y1="0%" x2="50%" y2="97.483%" id="n"><stop stop-color="#21C8F6" offset="0%"/><stop stop-color="#637BFF" offset="100%"/></linearGradient><linearGradient x1="-.623%" y1="35.43%" x2="83.7%" y2="128.295%" id="o"><stop stop-color="#76E1FF" offset="0%"/><stop stop-color="#637BFF" offset="100%"/></linearGradient><linearGradient x1="39.862%" y1="27.493%" x2="80.186%" y2="155.325%" id="p"><stop stop-color="#56749D" offset="0%"/><stop stop-color="#25395B" offset="100%"/></linearGradient><linearGradient x1="4.649%" y1="80.06%" x2="152.208%" y2="0%" id="q"><stop stop-color="#5B79A2" offset="0%"/><stop stop-color="#2E4469" offset="100%"/></linearGradient><linearGradient x1="0%" y1="50%" x2="100%" y2="50%" id="r"><stop stop-color="#6F90BC" offset="0%"/><stop stop-color="#2E4469" offset="100%"/></linearGradient><linearGradient x1="67.252%" y1="44.898%" x2="15.826%" y2="70.73%" id="s"><stop stop-color="#76E1FF" offset="0%"/><stop stop-color="#637BFF" stop-opacity="0" offset="100%"/></linearGradient><radialGradient cx="52.101%" cy="30.594%" fx="52.101%" fy="30.594%" r="390.368%" gradientTransform="matrix(-.125 0 0 -.25522 .586 .384)" id="b"><stop offset="0%"/><stop stop-opacity=".002" offset="100%"/></radialGradient><radialGradient cx="43.214%" cy="45.494%" fx="43.214%" fy="45.494%" r="79.991%" gradientTransform="scale(-.40628 -1) rotate(20.698 2.176 -4.096)" id="f"><stop stop-color="#27C2F7" offset="0%"/><stop stop-color="#0077E5" stop-opacity=".414" offset="100%"/></radialGradient><radialGradient cx="52.436%" cy="42.955%" fx="52.436%" fy="42.955%" r="216.684%" gradientTransform="matrix(-.16667 0 0 -.21136 .612 .52)" id="j"><stop offset="0%"/><stop stop-opacity="0" offset="79.895%"/></radialGradient><filter x="-7.1%" y="-57%" width="114.2%" height="214%" filterUnits="objectBoundingBox" id="c"><feGaussianBlur stdDeviation="1.037" in="SourceGraphic"/></filter></defs><g transform="translate(2.5 1.5)" fill="none" fill-rule="evenodd"><text opacity=".5" font-family="Helvetica" font-size="3.638" fill="#4A4A4A"><tspan x="15.352" y="33.801">series</tspan></text><g transform="translate(.698 23.1)"><path d="M15.311.88h18.593c1.152 0 2.105.895 2.179 2.044l.781 12.267a2.183 2.183 0 01-2.178 2.321H14.434a2.183 2.183 0 01-2.177-2.338l.877-12.267A2.183 2.183 0 0115.311.88z" fill="#1B283E"/><path d="M14.925.88h19.348a2.183 2.183 0 012.178 2.326l-.805 12.267a2.183 2.183 0 01-2.178 2.04H15.73a2.183 2.183 0 01-2.178-2.04l-.805-12.267A2.183 2.183 0 0114.925.88z" fill="url(#a)"/><ellipse fill="url(#b)" opacity=".783" filter="url(#c)" transform="rotate(1 22.78 10.52)" cx="22.78" cy="10.521" rx="21.827" ry="2.728"/></g><g transform="translate(9.29 6.883)"><rect fill="url(#d)" x=".182" width="31.649" height="16.734" rx="1.455"/><rect width="30.557" height="12.187" rx="1.091" transform="translate(.91 .438)" fill="url(#e)"/><g fill="#2E4469" transform="translate(17.098 1.53)"><rect width="4.365" height="1" rx=".218"/><rect x="4.802" width="4.365" height="1" rx=".218"/><rect x="9.458" width="1.601" height="1" rx=".218"/><rect x="11.495" width="1.601" height="1" rx=".218"/></g><g transform="translate(19.571 3.7)" fill="#2E4469"><rect width="3.638" height="1" rx=".218"/><rect width="3.638" height="1" rx=".218"/><rect x="3.929" width="3.638" height="1" rx=".218"/><rect x="3.929" width="3.638" height="1" rx=".218"/><rect x="7.858" width="1.31" height="1" rx=".218"/><rect x="9.458" width="1" height="1" rx=".218"/></g><g transform="translate(18.116 2.687)" fill="#2E4469"><rect width="3.783" height="1" rx=".218"/><rect x="4.22" width="8.44" height="1" rx=".218"/></g><g transform="translate(19.571 4.858)" fill="#2E4469"><rect opacity=".7" width="3.201" height="1" rx=".218"/><rect width="3.201" height="1" rx=".218"/><rect opacity=".703" x="3.492" width="7.13" height="1" rx=".218"/><rect x="3.492" width="7.13" height="1" rx=".218"/></g><g transform="translate(19.571 5.871)" fill="#2E4469"><rect opacity=".502" width="3.201" height="1" rx=".218"/><rect width="3.201" height="1" rx=".218"/><rect opacity=".502" x="3.492" width="7.13" height="1" rx=".218"/><rect x="3.492" width="7.13" height="1" rx=".218"/></g><g transform="translate(19.571 6.884)" fill="#2E4469"><rect opacity=".344" width="3.201" height="1" rx=".218"/><rect width="3.201" height="1" rx=".218"/><rect opacity=".5" x="3.492" width="7.13" height="1" rx=".218"/><rect x="3.492" width="7.13" height="1" rx=".218"/></g><g opacity=".12" transform="translate(19.571 8.042)" fill="#2E4469"><rect width="3.201" height="1" rx=".218"/><rect x="3.492" width="7.13" height="1" rx=".218"/></g><g opacity=".069" transform="translate(19.571 9.055)" fill="#2E4469"><rect width="3.201" height="1" rx=".218"/><rect x="3.492" width="7.13" height="1" rx=".218"/></g><path stroke="#2E4469" stroke-width=".578" stroke-linecap="round" stroke-linejoin="round" d="M17.316 2.542v8.051M18.48 3.7v6.08"/><path d="M.92.011l29.383.427L.543 12.097a.291.291 0 01-.397-.271V.775A.764.764 0 01.92.01z" fill="url(#f)" opacity=".283" transform="translate(.182)"/></g><path d="M9.353 16.583h32.252c.755 0 1.441.431 1.533.962l3.622 13.71c.092.531-.806 1.82-2.523 1.82H6.721c-1.714 0-2.615-1.289-2.523-1.82l3.622-13.71c.092-.53.778-.962 1.533-.962z" fill="#1B283E"/><path d="M4.647 0h33.996c.795 0 1.518.43 1.615.962l2.659 14.568c.097.53-.575.961-1.5.961H1.873c-.925 0-1.597-.43-1.5-.961L3.031.962C3.128.43 3.851 0 4.647 0z" fill="url(#g)" transform="translate(3.834 15.613)"/><path d="M5.347.323h32.595c.794 0 1.51.426 1.6.95l2.284 13.299c.09.524-.574.95-1.484.95H2.948c-.91 0-1.575-.426-1.485-.95L3.748 1.273c.09-.524.806-.95 1.6-.95z" fill="url(#h)" transform="translate(3.834 15.613)"/><path d="M5.347.323h32.595c.794 0 1.51.426 1.6.95l2.284 13.299c.09.524-.574.95-1.484.95H2.948c-.91 0-1.575-.426-1.485-.95L3.748 1.273c.09-.524.806-.95 1.6-.95z" stroke="url(#i)" stroke-width=".578" opacity=".789" transform="translate(3.834 15.613)"/><ellipse fill="url(#j)" opacity=".362" cx="19.113" cy="26.163" rx="6.548" ry="1.091"/><path d="M1.455 0h2.386c.804 0 1.456.651 1.456 1.455v1.062c0 .804-.652 1.455-1.456 1.455H1.455A1.455 1.455 0 010 2.517V1.455C0 .651.651 0 1.455 0z" stroke="#72D6F9" stroke-width=".578" fill="url(#k)" transform="rotate(30 -28.67 42.092)"/><path fill="#71D2F7" d="M17.244 23.51l.19-.316 1.586.237-.952-1.292.19-.316 1.223 1.67-.19.316z"/><g transform="translate(20.932 14.886)"><ellipse fill="url(#j)" opacity=".523" cx="6.548" cy="8.367" rx="6.548" ry="1.091"/><path d="M1.455 0H5.82c.804 0 1.456.651 1.456 1.455v2.547c0 .803-.652 1.455-1.456 1.455H1.455A1.455 1.455 0 010 4.002V1.455C0 .651.651 0 1.455 0z" transform="rotate(30 2.092 7.806)" fill="url(#l)" stroke="#72D6F9" stroke-width=".578"/></g><path fill="#72D6F9" d="M28.622 18.208l-3.345-.085 1.659 2.891.523-.872-.616-1.094 1.271.004z"/><path stroke="url(#m)" stroke-width=".728" d="M22.018 11.533l-8.543-9.839L.8 10.297l2.945 14.84" transform="rotate(8 -.77 33.068)"/><g transform="rotate(8 -7.5 118.542)"><circle fill="url(#n)" cx="1.637" cy="1.637" r="1.637"/><path d="M1.559 0c.51 0 .964.246 1.248.625A1.559 1.559 0 00.624 2.807 1.558 1.558 0 011.56 0z" fill-opacity=".2" fill="#FFF"/></g><g transform="rotate(8 -68.4 28.34)"><circle fill="url(#n)" cx=".909" cy=".909" r="1"/><path d="M.808 0c.265 0 .5.127.647.323A.808.808 0 00.323 1.455.808.808 0 01.808 0z" fill-opacity=".2" fill="#FFF"/></g><path d="M24.903 13.32a.728.728 0 01-.16 1.017l-1.472 1.07a.728.728 0 11-.856-1.178l1.472-1.07a.728.728 0 011.016.162z" fill="url(#o)" transform="translate(.924 .335)"/><path d="M2.91 1.091C-.164.898-.235 6.018 1.065 6.283" stroke="url(#p)" stroke-width=".578" transform="translate(5.653 11.248)"/><g transform="rotate(90 -.979 10.451)"><rect fill="url(#q)" x=".39" y=".364" width="1.039" height="1.091" rx=".52"/><rect fill="url(#r)" width="1.819" height="1" rx=".5"/></g><path stroke="url(#s)" stroke-width=".728" transform="rotate(-124 23.702 16.527)" d="M20.252 6.323l-4.976-5.218L6.35 9.732.054 7.767"/><circle cx="1.273" cy="1.273" r="1.273" fill="url(#n)" transform="scale(1 -1) rotate(-56 -22.75 -28.902)"/><path d="M14.636 32.642c.23.341.597.534.979.553a1.257 1.257 0 01.475-2.444 1.257 1.257 0 00-1.454 1.891z" fill-opacity=".2" fill="#FFF"/><circle cx=".909" cy=".909" r="1" fill="url(#n)" transform="scale(1 -1) rotate(-56 -19.268 -42.161)"/><path d="M26.962 35.304c.164.243.426.38.697.394a.9.9 0 01.34-1.745.898.898 0 00-1.037 1.351z" fill-opacity=".2" fill="#FFF"/><path d="M6.714 2.68a.728.728 0 01-.16 1.015l-1.472 1.07a.728.728 0 11-.856-1.178l1.472-1.069a.728.728 0 011.016.161z" fill="url(#o)" transform="rotate(66 -5.323 23.556)"/></g></svg>