<svg width="50" height="50" fill="none" xmlns="http://www.w3.org/2000/svg"><path opacity=".01" fill="#D8D8D8" d="M0 0h50v50H0z"/><path d="M43.41 13.712l-.002-8.35A2.864 2.864 0 0040.544 2.5h-8.09a2.87 2.87 0 00-2.175 1L7.28 30.331a2.87 2.87 0 00-.689 1.864v8.35a2.864 2.864 0 002.864 2.864h8.092c.835 0 1.63-.366 2.174-1L42.72 15.577c.445-.52.69-1.18.69-1.865z" fill="#D249FC"/><path d="M43.41 12.708V5.363a2.864 2.864 0 00-2.864-2.864H31.34c-.136 0-.271.01-.405.029L4.959 6.238A2.864 2.864 0 002.5 9.074v11.02a2.864 2.864 0 002.864 2.864l13.035-.003c.308 0 .613-.05.905-.147l22.147-7.382a2.863 2.863 0 001.958-2.717z" fill="url(#paint0_linear_0_15993)"/><path d="M47.5 44.637V20.753c0-1.145-.683-2.18-1.735-2.632L19.404 6.823a2.867 2.867 0 00-1.128-.231H5.364A2.864 2.864 0 002.5 9.455v12.633c0 .566.168 1.118.482 1.59l15.05 22.548a2.863 2.863 0 002.38 1.274h24.224a2.864 2.864 0 002.864-2.863z" fill="url(#paint1_linear_0_15993)"/><path d="M39.063 10.937H10.936v28.125h28.126V10.937z" fill="#000"/><path fill-rule="evenodd" clip-rule="evenodd" d="M18.877 14.685H14.45V25h2.011v-3.898h2.358c.736 0 1.383-.133 1.938-.398.56-.27.99-.649 1.29-1.135.303-.486.456-1.06.456-1.694 0-.634-.15-1.191-.45-1.673a2.94 2.94 0 00-1.267-1.12c-.55-.265-1.187-.397-1.909-.397zm.751 4.56c-.25.123-.545.185-.884.185H16.46v-3.073h2.284c.34 0 .634.064.884.192.256.122.452.299.59.53.137.226.206.501.206.81 0 .31-.069.583-.206.819a1.39 1.39 0 01-.59.538z" fill="#fff"/><path d="M25.1 24.772c.604.27 1.284.405 2.041.405.761 0 1.444-.135 2.048-.405.604-.27 1.076-.646 1.415-1.127a2.829 2.829 0 00.508-1.658 3 3 0 00-.324-1.385 2.911 2.911 0 00-.92-1.069 3.28 3.28 0 00-1.364-.567l-2.048-.383c-.325-.064-.578-.192-.76-.383a1.023 1.023 0 01-.272-.722c0-.246.074-.462.221-.649.147-.192.354-.342.62-.45.264-.107.557-.162.89-.162.335 0 .634.056.9.17.265.107.471.26.619.456.152.197.228.423.228.678h2.011a2.622 2.622 0 00-.5-1.562c-.324-.457-.774-.813-1.349-1.068-.57-.256-1.218-.384-1.93-.384-.713 0-1.354.13-1.923.39-.566.262-1.01.624-1.334 1.091-.32.467-.479 1-.479 1.6 0 .486.098.928.295 1.326.197.393.476.722.84.987.368.26.8.437 1.296.53l2.115.406c.349.069.621.216.818.442.201.22.302.496.302.825 0 .265-.081.501-.243.707a1.608 1.608 0 01-.678.487c-.285.113-.61.17-.973.17a2.64 2.64 0 01-1.031-.192 1.765 1.765 0 01-.715-.53 1.287 1.287 0 01-.258-.79h-2.019c.01.63.187 1.19.53 1.68.345.487.819.866 1.423 1.136zm-10.651 8.666h11.25v2.11h-11.25v-2.11z" fill="#fff"/><defs><linearGradient id="paint0_linear_0_15993" x1="42.141" y1="1.995" x2="4.435" y2="19.477" gradientUnits="userSpaceOnUse"><stop offset=".16" stop-color="#D249FC"/><stop offset=".55" stop-color="#FF2D90"/></linearGradient><linearGradient id="paint1_linear_0_15993" x1="5.3" y1="5.47" x2="46.577" y2="46.747" gradientUnits="userSpaceOnUse"><stop offset=".3" stop-color="#FF2D90"/><stop offset=".7" stop-color="#7256FF"/></linearGradient></defs></svg>