<svg width="50" height="50" xmlns="http://www.w3.org/2000/svg"><g transform="translate(2.5 5)" fill="#61DAFB"><path d="M44.664 19.864c0-2.955-3.7-5.755-9.373-7.491C36.6 6.59 36.018 1.99 33.455.518 32.864.173 32.173.01 31.418.01v2.027c.418 0 .755.082 1.037.237 1.236.709 1.772 3.409 1.354 6.882-.1.854-.264 1.754-.464 2.672a44.057 44.057 0 00-5.772-.99A44.346 44.346 0 0023.79 6.29c2.964-2.755 5.745-4.264 7.636-4.264V0c-2.5 0-5.772 1.782-9.082 4.873C19.036 1.8 15.764.036 13.264.036v2.028c1.881 0 4.672 1.5 7.636 4.236a42.938 42.938 0 00-3.755 4.536c-2.054.219-4 .555-5.781 1-.21-.909-.364-1.79-.473-2.636-.427-3.473.1-6.173 1.327-6.89.273-.165.627-.237 1.046-.237V.045c-.764 0-1.455.164-2.055.51C8.655 2.027 8.082 6.618 9.4 12.382 3.745 14.127.064 16.918.064 19.864c0 2.954 3.7 5.754 9.372 7.49-1.309 5.782-.727 10.382 1.837 11.855.59.346 1.282.51 2.045.51 2.5 0 5.773-1.783 9.082-4.874 3.31 3.073 6.582 4.837 9.082 4.837.763 0 1.454-.164 2.054-.51 2.555-1.472 3.128-6.063 1.81-11.827 5.636-1.736 9.318-4.536 9.318-7.481zM32.827 13.8a40.944 40.944 0 01-1.227 3.59 43.023 43.023 0 00-1.19-2.18 49.189 49.189 0 00-1.31-2.128c1.29.19 2.536.427 3.727.718zm-4.163 9.682a48.431 48.431 0 01-2.191 3.473 47.302 47.302 0 01-8.2.009 50.113 50.113 0 01-2.2-3.455 47.28 47.28 0 01-1.891-3.618 47.406 47.406 0 011.882-3.627 48.431 48.431 0 012.19-3.473 47.302 47.302 0 018.2-.01 50.113 50.113 0 012.2 3.455 46.946 46.946 0 011.891 3.619 50.9 50.9 0 01-1.881 3.627zM31.6 22.3a38.96 38.96 0 011.255 3.618 40.8 40.8 0 01-3.746.727c.446-.7.891-1.418 1.31-2.154.417-.727.808-1.464 1.181-2.191zM22.382 32a37.479 37.479 0 01-2.527-2.91 55.28 55.28 0 002.5.065c.854 0 1.7-.019 2.527-.064a35.484 35.484 0 01-2.5 2.909zm-6.764-5.355a41.021 41.021 0 01-3.727-.718 40.944 40.944 0 011.227-3.59c.373.727.764 1.454 1.191 2.181a60.21 60.21 0 001.31 2.127zm6.718-18.918a37.504 37.504 0 012.528 2.91 56.277 56.277 0 00-2.5-.064c-.855 0-1.7.018-2.528.063a35.484 35.484 0 012.5-2.909zm-6.727 5.355a50.222 50.222 0 00-2.49 4.336 38.96 38.96 0 01-1.255-3.618 44.15 44.15 0 013.745-.718zM7.382 24.464c-3.218-1.373-5.3-3.173-5.3-4.6 0-1.428 2.082-3.237 5.3-4.6a28.012 28.012 0 012.518-.919 43.662 43.662 0 002.045 5.537 43.047 43.047 0 00-2.018 5.509c-.9-.282-1.754-.591-2.545-.927zm4.89 12.99c-1.236-.709-1.772-3.409-1.354-6.881.1-.855.264-1.755.464-2.673 1.782.436 3.727.773 5.773.99a44.346 44.346 0 003.781 4.546C17.973 36.191 15.191 37.7 13.3 37.7c-.41-.01-.755-.09-1.027-.245zm21.564-6.927c.428 3.473-.1 6.173-1.327 6.891-.273.164-.627.237-1.045.237-1.882 0-4.673-1.5-7.637-4.237a42.938 42.938 0 003.755-4.536c2.054-.218 4-.555 5.782-1 .209.918.372 1.8.472 2.645zm3.5-6.063c-.781.336-1.636.636-2.518.918a43.662 43.662 0 00-2.045-5.537 43.047 43.047 0 002.018-5.509c.9.282 1.754.591 2.554.928 3.219 1.372 5.3 3.172 5.3 4.6-.009 1.427-2.09 3.236-5.309 4.6z"/><circle cx="22.355" cy="19.864" r="4.155"/></g></svg>