<svg width="50" height="50" xmlns="http://www.w3.org/2000/svg"><defs><linearGradient x1="82.206%" y1="52.899%" x2="-110.648%" y2="35.699%" id="a"><stop stop-color="#2E4469" offset="0%"/><stop stop-color="#6F90BC" offset="100%"/></linearGradient><linearGradient x1="82.206%" y1="51.55%" x2="-110.648%" y2="42.353%" id="b"><stop stop-color="#2E4469" offset="0%"/><stop stop-color="#6F90BC" offset="100%"/></linearGradient><linearGradient x1="0%" y1="50%" x2="107.153%" y2="52.248%" id="c"><stop stop-color="#2E4469" offset="0%"/><stop stop-color="#6F90BC" offset="100%"/></linearGradient><linearGradient x1="24.216%" y1="50%" x2="79.473%" y2="60.827%" id="d"><stop stop-color="#2E4469" offset="0%"/><stop stop-color="#6F90BC" offset="100%"/></linearGradient></defs><g fill="none" fill-rule="evenodd"><rect width="192" height="84" rx="14" transform="translate(-17 -17)" stroke="#F0F0F0"/><path d="M9.408 12.096c5.745 0 9.408-1.593 9.408-2.688V4.744C16.881 6.048 13.131 6.72 9.408 6.72S1.935 6.048 0 4.744v4.664c0 1.095 3.663 2.688 9.408 2.688z" fill="url(#a)" transform="translate(2 7.5)"/><path d="M18.816 2.688C18.816 1.204 14.604 0 9.408 0S0 1.204 0 2.688c0 1.484 4.212 2.688 9.408 2.688s9.408-1.204 9.408-2.688z" fill="url(#b)" transform="translate(2 7.5)"/><path d="M9.408 18.816c5.745 0 9.408-1.593 9.408-2.688v-4.664c-1.935 1.304-5.685 1.976-9.408 1.976S1.935 12.768 0 11.464v4.664c0 1.095 3.663 2.688 9.408 2.688z" fill="url(#a)" transform="translate(2 7.5)"/><path d="M10.658 25.503a4.627 4.627 0 015.51-2.917 7.395 7.395 0 012.648-2.291v-2.11c-1.935 1.303-5.685 1.975-9.408 1.975S1.935 19.488 0 18.184v4.664c0 1.095 3.663 2.688 9.408 2.688.403 0 .82-.013 1.25-.033z" fill="url(#a)" transform="translate(2 7.5)"/><path fill="#FFF" d="M9.56 24.3h36.12v16.8H9.56z"/><path d="M36.887.163H2.53A2.49 2.49 0 00.04 2.651v12.946a2.49 2.49 0 002.49 2.49h34.357a2.49 2.49 0 002.49-2.49V2.652a2.49 2.49 0 00-2.49-2.49zM26.302 15.177l-.85 2.277a44.863 44.863 0 01-5.131-1.834 2.937 2.937 0 00-.907-.192c-2.933-.192-5.673-2.353-5.673-6.599 0-3.898 2.47-6.831 6.348-6.831 3.976 0 6.156 3.01 6.156 6.56 0 2.954-1.37 5.036-3.088 5.808v.078c1.004.29 2.123.521 3.145.733zm-22.886-.56l.598-2.43c.79.405 2.007.81 3.26.81 1.352 0 2.065-.56 2.065-1.409 0-.81-.617-1.273-2.18-1.833C5 9.003 3.59 7.806 3.59 5.915c0-2.219 1.853-3.917 4.921-3.917 1.466 0 2.547.309 3.32.656l-.658 2.373a6.182 6.182 0 00-2.72-.617c-1.274 0-1.89.578-1.89 1.254 0 .83.732 1.196 2.41 1.832 2.297.85 3.378 2.046 3.378 3.88 0 2.18-1.679 4.033-5.249 4.033-1.486 0-2.952-.386-3.685-.791zm1.922 3.47h28.74-28.74zm22.837-2.871V2.21h2.952v10.536H36.3v2.47h-8.124z" fill="url(#c)" transform="translate(7.88 23.46)"/><path d="M20.012 4.333c-2.007 0-3.165 1.968-3.165 4.4-.02 2.47 1.177 4.36 3.145 4.36 1.987 0 3.146-1.871 3.146-4.418 0-2.374-1.119-4.342-3.126-4.342z" fill="url(#d)" transform="translate(7.88 23.46)"/></g></svg>