<svg width="50" height="50" xmlns="http://www.w3.org/2000/svg"><defs><linearGradient x1="-2.778%" y1="32%" x2="100%" y2="67.556%" id="a"><stop stop-color="#2298BD" offset="0%"/><stop stop-color="#0ED7B5" offset="100%"/></linearGradient></defs><path d="M19.66 0c-5.242 0-8.519 2.621-9.83 7.864 1.966-2.621 4.26-3.604 6.882-2.949 1.495.374 2.564 1.46 3.748 2.66 1.927 1.957 4.158 4.221 9.031 4.221 5.243 0 8.52-2.621 9.83-7.864-1.965 2.622-4.26 3.605-6.88 2.95-1.496-.375-2.565-1.46-3.749-2.66C26.765 2.264 24.534 0 19.661 0zM9.83 11.796c-5.242 0-8.52 2.622-9.83 7.865 1.966-2.622 4.26-3.605 6.881-2.95 1.496.375 2.565 1.46 3.748 2.66 1.928 1.957 4.159 4.222 9.032 4.222 5.243 0 8.52-2.621 9.83-7.864-1.966 2.621-4.26 3.604-6.881 2.949-1.496-.374-2.565-1.46-3.748-2.66-1.928-1.957-4.159-4.222-9.032-4.222z" transform="translate(5 13)" fill="url(#a)"/></svg>