<svg xmlns="http://www.w3.org/2000/svg" width="50" height="50"><g fill="none" fill-rule="evenodd"><rect width="192" height="84" rx="14" stroke="#F0F0F0" transform="translate(-17 -17)"/><g transform="translate(3.5 4)"><rect width="43" height="42" fill="#007BD2" rx="4.199"/><path fill="#FFF" d="M25.618 32.284v4.172c.683.348 1.492.609 2.425.782.933.174 1.917.261 2.95.261a13.85 13.85 0 002.873-.287c.907-.19 1.702-.506 2.385-.945a4.836 4.836 0 001.624-1.721c.398-.709.598-1.584.598-2.628 0-.756-.114-1.419-.342-1.988a4.641 4.641 0 00-.986-1.52 7.268 7.268 0 00-1.544-1.192c-.6-.352-1.277-.685-2.031-.998a25.582 25.582 0 01-1.485-.658 7.605 7.605 0 01-1.118-.652 2.893 2.893 0 01-.71-.704 1.477 1.477 0 01-.249-.841c0-.287.074-.546.223-.776.15-.23.36-.428.631-.594a3.388 3.388 0 011-.384 5.846 5.846 0 011.314-.137c.35 0 .72.026 1.11.078a8.457 8.457 0 012.327.652 6.41 6.41 0 011.032.574v-3.899a10.34 10.34 0 00-2.097-.541 17.26 17.26 0 00-2.609-.176c-.999 0-1.945.106-2.839.32-.894.212-1.68.545-2.36.997a5.014 5.014 0 00-1.61 1.728c-.394.7-.59 1.536-.59 2.51 0 1.243.36 2.303 1.083 3.181.723.878 1.82 1.622 3.293 2.23.578.235 1.117.465 1.617.691.5.226.93.46 1.294.704a3.4 3.4 0 01.861.796c.21.286.316.612.316.978 0 .27-.066.519-.197.75-.132.23-.331.43-.598.6-.268.169-.6.301-1 .397a6.026 6.026 0 01-1.4.143c-.91 0-1.813-.158-2.707-.476a8.094 8.094 0 01-2.484-1.427zM18.55 22.003h5.393v-3.424H8.91v3.424h5.367v15.246h4.273V22.003z"/></g></g></svg>